<?xml version="1.0" encoding="iso-8859-1"?>
<svg version="1.1" id="Capa_1" xmlns="http://www.w3.org/2000/svg" xmlns:xlink="http://www.w3.org/1999/xlink" x="0px" y="0px"
	 viewBox="0 0 231 231" style="enable-background:new 0 0 231 231;" xml:space="preserve">
<path d="M217,167.821v-6.753c0-47.321-32.673-87.143-76.852-98.078c0.117-0.978,0.268-1.97,0.268-2.979
	c0-13.693-11.098-24.833-24.791-24.833s-24.813,11.14-24.813,24.833c0,1.036-0.085,2.055,0.039,3.058
	C46.835,74.118,14,113.863,14,161.068v6.753H0v28h231v-28H217z M105.833,60.012c0-5.422,4.411-9.833,9.834-9.833
	c5.422,0,9.833,4.411,9.833,9.833c0,0.155-0.016,0.306-0.023,0.459c-3.175-0.299-6.391-0.459-9.643-0.459
	c-3.366,0-6.693,0.168-9.976,0.488C105.85,60.337,105.833,60.177,105.833,60.012z"/>

</svg>
